<?xml version="1.0" encoding="utf-8"?>
<!-- Uploaded to: SVG Repo, www.svgrepo.com, Generator: SVG Repo Mixer Tools -->
<svg fill="#000000" width="800px" height="800px" viewBox="0 0 32 32" version="1.1" xmlns="http://www.w3.org/2000/svg">
<title>compass</title>
<path d="M25.182 8.134l1.757-3.087-3.088 1.758c-4.767-4.083-11.958-3.869-16.47 0.643s-4.727 11.703-0.644 16.47l-1.758 3.089 3.088-1.757c4.767 4.091 11.964 3.879 16.479-0.636s4.727-11.712 0.636-16.479zM24.57 7.473c0 0 0 0 0 0v0zM15.952 16.091l-2.993-2.993 2.993 2.993 6.138-6.138c0 0 0 0 0 0l-6.138 6.138zM9.865 9.925c2.892-2.892 7.327-3.301 10.656-1.226l-7.577 4.312-4.306 7.566c-2.073-3.328-1.664-7.761 1.227-10.653zM22.062 22.122c-2.892 2.892-7.326 3.301-10.655 1.226l5.655-3.219 1.882-1.045-0.016-0.016 0.046-0.026 4.313-7.578c2.076 3.328 1.668 7.765-1.224 10.657z"></path>
</svg>